<svg xmlns="http://www.w3.org/2000/svg" width="100" height="100" viewBox="0 0 100 100">
  <defs>
    <linearGradient id="grad1" x1="0%" y1="0%" x2="100%" y2="100%">
      <stop offset="0%" style="stop-color:#8B5CF6;stop-opacity:1" />
      <stop offset="100%" style="stop-color:#EC4899;stop-opacity:1" />
    </linearGradient>
  </defs>
  
  <!-- Calculator body -->
  <rect x="20" y="15" width="60" height="70" rx="8" ry="8" fill="url(#grad1)" stroke="#fff" stroke-width="2"/>
  
  <!-- Calculator screen -->
  <rect x="25" y="20" width="50" height="25" rx="3" ry="3" fill="#1F2937" stroke="#374151" stroke-width="1"/>
  
  <!-- Screen content -->
  <text x="75" y="38" font-family="Arial, sans-serif" font-size="12" font-weight="bold" fill="#10B981" text-anchor="end">123</text>
  
  <!-- Calculator buttons grid -->
  <g font-family="Arial, sans-serif" font-size="10" font-weight="bold" fill="#fff" text-anchor="middle">
    <!-- Row 1 -->
    <circle cx="35" cy="55" r="6" fill="#374151"/>
    <text x="35" y="58">+</text>
    
    <circle cx="50" cy="55" r="6" fill="#374151"/>
    <text x="50" y="58">−</text>
    
    <circle cx="65" cy="55" r="6" fill="#374151"/>
    <text x="65" y="58">×</text>
    
    <!-- Row 2 -->
    <circle cx="35" cy="68" r="6" fill="#374151"/>
    <text x="35" y="71">7</text>
    
    <circle cx="50" cy="68" r="6" fill="#374151"/>
    <text x="50" y="71">8</text>
    
    <circle cx="65" cy="68" r="6" fill="#374151"/>
    <text x="65" y="71">9</text>
    
    <!-- Row 3 -->
    <circle cx="35" cy="81" r="6" fill="#374151"/>
    <text x="35" y="84">4</text>
    
    <circle cx="50" cy="81" r="6" fill="#374151"/>
    <text x="50" y="84">5</text>
    
    <circle cx="65" cy="81" r="6" fill="#374151"/>
    <text x="65" y="84">6</text>
  </g>
  
  <!-- Equals button -->
  <circle cx="80" cy="68" r="6" fill="#10B981"/>
  <text x="80" y="71" font-family="Arial, sans-serif" font-size="10" font-weight="bold" fill="#fff" text-anchor="middle">=</text>
  
  <!-- Decorative stars -->
  <text x="12" y="25" font-size="14" fill="#FCD34D" opacity="0.8">⭐</text>
  <text x="85" y="35" font-size="10" fill="#FCD34D" opacity="0.6">✨</text>
  <text x="90" y="60" font-size="12" fill="#FCD34D" opacity="0.7">🌟</text>
  
  <!-- Shadow effect -->
  <ellipse cx="50" cy="90" rx="20" ry="3" fill="#000" opacity="0.2"/>
</svg>